<svg width="68" height="69" viewBox="0 0 68 69" fill="none" xmlns="http://www.w3.org/2000/svg">
<rect x="14" y="21" width="41" height="26" fill="#E424E1"/>
<g filter="url(#filter0_d_348_2462)">
<path opacity="0.4" d="M37.1535 14.2158V14.6581C35.9677 14.6349 34.7819 14.6349 33.5961 14.6349V14.2391C33.5961 12.6326 32.2443 11.3289 30.6316 11.3289H28.2837C25.6038 11.3289 23.4219 9.18694 23.4219 6.57938C23.4219 5.62483 24.2282 4.83325 25.2006 4.83325C26.1967 4.83325 26.9793 5.62483 26.9793 6.57938C26.9793 7.27783 27.5722 7.83659 28.2837 7.83659H30.6316C34.2127 7.85988 37.1298 10.7235 37.1535 14.2158Z" fill="#E424E1"/>
<path fill-rule="evenodd" clip-rule="evenodd" d="M41.646 14.6998C42.4075 14.7102 43.1708 14.7207 43.9367 14.7285C52.1662 14.7285 58.1663 20.5955 58.1663 28.6975V39.1045C58.1663 47.2065 52.1662 53.0735 43.9367 53.0735C40.6402 53.1434 37.3436 53.1666 34.0234 53.1666C30.7031 53.1666 27.3592 53.1434 24.0626 53.0735C15.8332 53.0735 9.83301 47.2065 9.83301 39.1045V28.6975C9.83301 20.5955 15.8332 14.7285 24.0864 14.7285C27.1932 14.6819 30.3711 14.6354 33.5965 14.6354C34.7823 14.6354 35.9681 14.6354 37.1539 14.6587C38.649 14.6587 40.144 14.6792 41.646 14.6998ZM31.2249 35.6355H28.7347V38.1034C28.7347 39.0579 27.9284 39.8495 26.956 39.8495C25.9599 39.8495 25.1773 39.0579 25.1773 38.1034V35.6355H22.6634C21.691 35.6355 20.8847 34.8672 20.8847 33.8894C20.8847 32.9348 21.691 32.1432 22.6634 32.1432H25.1773V29.6987C25.1773 28.7441 25.9599 27.9525 26.956 27.9525C27.9284 27.9525 28.7347 28.7441 28.7347 29.6987V32.1432H31.2249C32.1973 32.1432 33.0036 32.9348 33.0036 33.8894C33.0036 34.8672 32.1973 35.6355 31.2249 35.6355ZM41.3042 31.7009H41.5414C42.5137 31.7009 43.3201 30.9326 43.3201 29.9548C43.3201 29.0002 42.5137 28.2086 41.5414 28.2086H41.3042C40.3081 28.2086 39.5255 29.0002 39.5255 29.9548C39.5255 30.9326 40.3081 31.7009 41.3042 31.7009ZM45.3597 39.7098H45.5968C46.5692 39.7098 47.3755 38.9415 47.3755 37.9637C47.3755 37.0091 46.5692 36.2175 45.5968 36.2175H45.3597C44.3636 36.2175 43.581 37.0091 43.581 37.9637C43.581 38.9415 44.3636 39.7098 45.3597 39.7098Z" fill="#2F0F29"/>
</g>
<defs>
<filter id="filter0_d_348_2462" x="0.833008" y="1.83325" width="66.333" height="66.3334" filterUnits="userSpaceOnUse" color-interpolation-filters="sRGB">
<feFlood flood-opacity="0" result="BackgroundImageFix"/>
<feColorMatrix in="SourceAlpha" type="matrix" values="0 0 0 0 0 0 0 0 0 0 0 0 0 0 0 0 0 0 127 0" result="hardAlpha"/>
<feOffset dy="6"/>
<feGaussianBlur stdDeviation="4.5"/>
<feComposite in2="hardAlpha" operator="out"/>
<feColorMatrix type="matrix" values="0 0 0 0 0.975 0 0 0 0 0.353438 0 0 0 0 0.800963 0 0 0 0.15 0"/>
<feBlend mode="normal" in2="BackgroundImageFix" result="effect1_dropShadow_348_2462"/>
<feBlend mode="normal" in="SourceGraphic" in2="effect1_dropShadow_348_2462" result="shape"/>
</filter>
</defs>
</svg>
