<svg width="80" height="73" viewBox="0 0 80 73" fill="none" xmlns="http://www.w3.org/2000/svg">
<g filter="url(#filter0_d_348_2454)">
<path fill-rule="evenodd" clip-rule="evenodd" d="M25.2832 54.7556C25.2832 52.7256 26.9265 51.0823 28.9565 51.0823C30.9624 51.0823 32.6057 52.7256 32.6057 54.7556C32.6057 56.7614 30.9624 58.4048 28.9565 58.4048C26.9265 58.4048 25.2832 56.7614 25.2832 54.7556ZM52.4707 54.7556C52.4707 52.7256 54.114 51.0823 56.144 51.0823C58.1499 51.0823 59.7932 52.7256 59.7932 54.7556C59.7932 56.7614 58.1499 58.4048 56.144 58.4048C54.114 58.4048 52.4707 56.7614 52.4707 54.7556Z" fill="#DAC171"/>
</g>
<g opacity="0.5" filter="url(#filter1_d_348_2454)">
<path fill-rule="evenodd" clip-rule="evenodd" d="M59.794 20.3434C61.2681 20.3434 62.2348 20.8509 63.2015 21.9626C64.1681 23.0743 64.3373 24.6693 64.1198 26.1169L61.824 41.9702C61.389 45.0176 58.779 47.2627 55.7098 47.2627H29.344C26.1298 47.2627 23.4715 44.7977 23.2056 41.6101L20.9823 15.266L17.3331 14.6377C16.3665 14.4685 15.6898 13.526 15.859 12.5594C16.0281 11.5685 16.9706 10.916 17.9615 11.061L23.7252 11.931C24.5469 12.0784 25.1511 12.7527 25.2236 13.5744L25.6827 18.9877C25.7552 19.7634 26.3836 20.3434 27.1569 20.3434H59.794ZM45.149 32.9077H51.8431C52.8581 32.9077 53.6556 32.086 53.6556 31.0952C53.6556 30.0802 52.8581 29.2827 51.8431 29.2827H45.149C44.134 29.2827 43.3365 30.0802 43.3365 31.0952C43.3365 32.086 44.134 32.9077 45.149 32.9077Z" fill="#645A36"/>
</g>
<defs>
<filter id="filter0_d_348_2454" x="12.2832" y="39.0823" width="60.5098" height="33.3225" filterUnits="userSpaceOnUse" color-interpolation-filters="sRGB">
<feFlood flood-opacity="0" result="BackgroundImageFix"/>
<feColorMatrix in="SourceAlpha" type="matrix" values="0 0 0 0 0 0 0 0 0 0 0 0 0 0 0 0 0 0 127 0" result="hardAlpha"/>
<feOffset dy="1"/>
<feGaussianBlur stdDeviation="6.5"/>
<feComposite in2="hardAlpha" operator="out"/>
<feColorMatrix type="matrix" values="0 0 0 0 1 0 0 0 0 0.929583 0 0 0 0 0.295833 0 0 0 0.71 0"/>
<feBlend mode="normal" in2="BackgroundImageFix" result="effect1_dropShadow_348_2454"/>
<feBlend mode="normal" in="SourceGraphic" in2="effect1_dropShadow_348_2454" result="shape"/>
</filter>
<filter id="filter1_d_348_2454" x="0.833008" y="0.0408936" width="78.3711" height="66.2218" filterUnits="userSpaceOnUse" color-interpolation-filters="sRGB">
<feFlood flood-opacity="0" result="BackgroundImageFix"/>
<feColorMatrix in="SourceAlpha" type="matrix" values="0 0 0 0 0 0 0 0 0 0 0 0 0 0 0 0 0 0 127 0" result="hardAlpha"/>
<feOffset dy="4"/>
<feGaussianBlur stdDeviation="7.5"/>
<feComposite in2="hardAlpha" operator="out"/>
<feColorMatrix type="matrix" values="0 0 0 0 0.984314 0 0 0 0 0.878431 0 0 0 0 0.533333 0 0 0 0.22 0"/>
<feBlend mode="normal" in2="BackgroundImageFix" result="effect1_dropShadow_348_2454"/>
<feBlend mode="normal" in="SourceGraphic" in2="effect1_dropShadow_348_2454" result="shape"/>
</filter>
</defs>
</svg>
