<svg width="80" height="80" viewBox="0 0 80 80" fill="none" xmlns="http://www.w3.org/2000/svg">
<g opacity="0.5" filter="url(#filter0_d_348_2448)">
<path d="M50.4706 60.1667H29.5263C21.3355 60.1667 15.833 54.422 15.833 45.8704V26.1321C15.833 17.5805 21.3355 11.8334 29.5263 11.8334H50.4731C58.6638 11.8334 64.1663 17.5805 64.1663 26.1321V45.8704C64.1663 54.422 58.6638 60.1667 50.4706 60.1667Z" fill="#2D4847"/>
</g>
<path fill-rule="evenodd" clip-rule="evenodd" d="M38.175 27.9646C38.175 31.2755 35.4804 33.97 32.1696 33.97C28.8563 33.97 26.1642 31.2755 26.1642 27.9646C26.1642 24.6538 28.8563 21.9568 32.1696 21.9568C35.4804 21.9568 38.175 24.6538 38.175 27.9646ZM57.8839 41.0451C58.447 41.5912 58.8505 42.2147 59.1164 42.8793C59.9211 44.89 59.5031 47.3067 58.6427 49.298C57.6229 51.6687 55.6702 53.4595 53.2101 54.2425C52.1177 54.5929 50.9722 54.7427 49.8291 54.7427H29.575C27.5595 54.7427 25.776 54.2739 24.314 53.3942C23.398 52.8432 23.2361 51.5745 23.9152 50.748C25.051 49.3705 26.1724 47.9882 27.3034 46.5937C29.459 43.9257 30.9115 43.1524 32.5258 43.8315C33.1807 44.1118 33.838 44.5347 34.5147 44.9794C36.3175 46.1732 38.8236 47.8117 42.1248 46.0331C44.3813 44.7992 45.6911 42.6878 46.8312 40.8501L46.8542 40.8131C46.9309 40.6901 47.007 40.5671 47.0829 40.4446C47.4705 39.8182 47.8523 39.2012 48.2849 38.6332C48.8214 37.93 50.8127 35.7308 53.3865 37.2968C55.0274 38.2828 56.4073 39.6168 57.8839 41.0451Z" fill="#16A39D"/>
<defs>
<filter id="filter0_d_348_2448" x="0.833008" y="0.833374" width="78.333" height="78.3334" filterUnits="userSpaceOnUse" color-interpolation-filters="sRGB">
<feFlood flood-opacity="0" result="BackgroundImageFix"/>
<feColorMatrix in="SourceAlpha" type="matrix" values="0 0 0 0 0 0 0 0 0 0 0 0 0 0 0 0 0 0 127 0" result="hardAlpha"/>
<feOffset dy="4"/>
<feGaussianBlur stdDeviation="7.5"/>
<feComposite in2="hardAlpha" operator="out"/>
<feColorMatrix type="matrix" values="0 0 0 0 0.483333 0 0 0 0 1 0 0 0 0 0.623663 0 0 0 0.35 0"/>
<feBlend mode="normal" in2="BackgroundImageFix" result="effect1_dropShadow_348_2448"/>
<feBlend mode="normal" in="SourceGraphic" in2="effect1_dropShadow_348_2448" result="shape"/>
</filter>
</defs>
</svg>
