<svg width="72" height="80" viewBox="0 0 72 80" fill="none" xmlns="http://www.w3.org/2000/svg">
<g filter="url(#filter0_d_348_2472)">
<path d="M36.2087 59.1667C35.9094 59.1667 35.6102 59.098 35.3401 58.9582L26.6375 54.4533C24.168 53.1736 22.2363 51.7375 20.7279 50.0645C17.4264 46.4056 15.5895 41.7087 15.5603 36.8365L15.4581 20.8003C15.4459 18.9496 16.6405 17.2884 18.4263 16.6627L34.4059 11.0914C35.3547 10.7526 36.4131 10.7478 37.3789 11.0749L53.4194 16.4566C55.2149 17.0561 56.4289 18.7055 56.4387 20.5539L56.5408 36.6019C56.5725 41.467 54.7988 46.1828 51.5484 49.882C50.057 51.5787 48.1423 53.0361 45.6972 54.3395L37.0724 58.9463C36.8048 59.0909 36.508 59.1643 36.2087 59.1667Z" fill="#152519"/>
</g>
<path d="M34.3544 40.6089C33.8873 40.6112 33.4202 40.443 33.0601 40.097L28.4278 35.6419C27.7125 34.9499 27.7052 33.8266 28.4132 33.1299C29.1212 32.4308 30.2768 32.4237 30.9945 33.1133L34.3277 36.3172L42.4659 28.2932C43.1763 27.5942 44.3319 27.5871 45.0472 28.2767C45.765 28.9686 45.7723 30.0943 45.0643 30.7886L35.6415 40.0804C35.2863 40.4311 34.8216 40.6065 34.3544 40.6089Z" fill="#69BA7F"/>
<defs>
<filter id="filter0_d_348_2472" x="0.458008" y="0.833374" width="71.083" height="78.3334" filterUnits="userSpaceOnUse" color-interpolation-filters="sRGB">
<feFlood flood-opacity="0" result="BackgroundImageFix"/>
<feColorMatrix in="SourceAlpha" type="matrix" values="0 0 0 0 0 0 0 0 0 0 0 0 0 0 0 0 0 0 127 0" result="hardAlpha"/>
<feOffset dy="5"/>
<feGaussianBlur stdDeviation="7.5"/>
<feComposite in2="hardAlpha" operator="out"/>
<feColorMatrix type="matrix" values="0 0 0 0 0.483333 0 0 0 0 1 0 0 0 0 0.623663 0 0 0 0.16 0"/>
<feBlend mode="normal" in2="BackgroundImageFix" result="effect1_dropShadow_348_2472"/>
<feBlend mode="normal" in="SourceGraphic" in2="effect1_dropShadow_348_2472" result="shape"/>
</filter>
</defs>
</svg>
