<?xml version="1.0" encoding="utf-8"?>
<!-- Generator: Adobe Illustrator 25.4.1, SVG Export Plug-In . SVG Version: 6.00 Build 0)  -->
<svg version="1.1" id="Layer_1" xmlns="http://www.w3.org/2000/svg" xmlns:xlink="http://www.w3.org/1999/xlink" x="0px" y="0px"
	 viewBox="0 0 72 80" style="enable-background:new 0 0 72 80;" xml:space="preserve">
<style type="text/css">
	.st0{fill:#2F0F29;}
	.st1{fill:#E424E1;}
</style>
<g>
	<g>
		<g>
			<g>
				<path class="st0" d="M36.2,59.2c-0.3,0-0.6-0.1-0.9-0.2l-8.7-4.5c-2.5-1.3-4.4-2.7-5.9-4.4c-3.3-3.7-5.1-8.4-5.2-13.2l-0.1-16
					c0-1.9,1.2-3.5,3-4.1l16-5.6c0.9-0.3,2-0.3,3,0l16,5.4c1.8,0.6,3,2.2,3,4.1l0.1,16c0,4.9-1.7,9.6-5,13.3
					c-1.5,1.7-3.4,3.2-5.9,4.5L37,59.1C36.8,59.1,36.5,59.2,36.2,59.2z"/>
			</g>
		</g>
	</g>
</g>
<path class="st1" d="M34.4,40.6c-0.5,0-0.9-0.2-1.3-0.5l-4.6-4.5c-0.7-0.7-0.7-1.8,0-2.5s1.9-0.7,2.6,0l3.3,3.2l8.1-8
	c0.7-0.7,1.9-0.7,2.6,0c0.7,0.7,0.7,1.8,0,2.5l-9.4,9.3C35.3,40.4,34.8,40.6,34.4,40.6z"/>
</svg>
