<svg width="76" height="80" viewBox="0 0 76 80" fill="none" xmlns="http://www.w3.org/2000/svg">
<g opacity="0.5" filter="url(#filter0_d_348_2444)">
<path d="M60.3055 37.7278C59.8363 37.0028 59.1694 36.2778 58.305 35.8186C57.6135 35.4803 57.1689 34.9244 56.7738 34.2719C55.5142 32.1936 56.2551 29.4628 58.3544 28.2303C60.8241 26.8528 61.6145 23.7836 60.182 21.3911L58.5273 18.5395C57.1195 16.147 54.0324 15.3011 51.5874 16.7028C49.414 17.8628 46.6232 17.0895 45.3636 15.0353C44.9685 14.3586 44.7462 13.6336 44.7956 12.9086C44.8697 11.9661 44.5733 11.072 44.1288 10.347C43.215 8.84862 41.5602 7.83362 39.7326 7.83362H36.2503C34.4474 7.88195 32.7927 8.84862 31.8789 10.347C31.4097 11.072 31.138 11.9661 31.1874 12.9086C31.2368 13.6336 31.0145 14.3586 30.6193 15.0353C29.3598 17.0895 26.569 17.8628 24.4203 16.7028C21.9506 15.3011 18.8881 16.147 17.4557 18.5395L15.801 21.3911C14.3932 23.7836 15.1835 26.8528 17.6286 28.2303C19.7278 29.4628 20.4687 32.1936 19.2339 34.2719C18.814 34.9244 18.3695 35.4803 17.678 35.8186C16.8382 36.2778 16.0973 37.0028 15.7022 37.7278C14.7884 39.2261 14.8378 41.1111 15.7516 42.6819L17.4557 45.5819C18.3695 47.1286 20.0736 48.0953 21.8518 48.0953C22.6915 48.0953 23.6794 47.8536 24.4697 47.3703C25.0871 46.9594 25.8281 46.8144 26.6431 46.8144C29.0881 46.8144 31.138 48.8203 31.1874 51.2128C31.1874 53.992 33.4595 56.1669 36.3244 56.1669H39.6833C42.5234 56.1669 44.7956 53.992 44.7956 51.2128C44.8697 48.8203 46.9196 46.8144 49.3646 46.8144C50.1549 46.8144 50.8958 46.9594 51.538 47.3703C52.3283 47.8536 53.2915 48.0953 54.1559 48.0953C55.9094 48.0953 57.6135 47.1286 58.5273 45.5819L60.2561 42.6819C61.1452 41.0628 61.2193 39.2261 60.3055 37.7278Z" fill="#1F42BF"/>
</g>
<path d="M38.0287 38.8395C34.1512 38.8395 31.0146 35.8186 31.0146 32.0245C31.0146 28.2303 34.1512 25.1853 38.0287 25.1853C41.9062 25.1853 44.9686 28.2303 44.9686 32.0245C44.9686 35.8186 41.9062 38.8395 38.0287 38.8395Z" fill="#4A7FFF"/>
<defs>
<filter id="filter0_d_348_2444" x="0.0410156" y="0.833618" width="75.917" height="78.3334" filterUnits="userSpaceOnUse" color-interpolation-filters="sRGB">
<feFlood flood-opacity="0" result="BackgroundImageFix"/>
<feColorMatrix in="SourceAlpha" type="matrix" values="0 0 0 0 0 0 0 0 0 0 0 0 0 0 0 0 0 0 127 0" result="hardAlpha"/>
<feOffset dy="8"/>
<feGaussianBlur stdDeviation="7.5"/>
<feComposite in2="hardAlpha" operator="out"/>
<feColorMatrix type="matrix" values="0 0 0 0 0.195833 0 0 0 0 0.46925 0 0 0 0 1 0 0 0 0.44 0"/>
<feBlend mode="normal" in2="BackgroundImageFix" result="effect1_dropShadow_348_2444"/>
<feBlend mode="normal" in="SourceGraphic" in2="effect1_dropShadow_348_2444" result="shape"/>
</filter>
</defs>
</svg>
